{
  "accessors": [
    {
      "bufferView": 2,
      "componentType": 5126,
      "count": 42853,
      "max": [
        43.41063690185547,
        58.14685821533203,
        60.137176513671875
      ],
      "min": [
        -43.41243362426758,
        20.63934326171875,
        -76.82113647460938
      ],
      "type": "VEC3"
    },
    {
      "bufferView": 2,
      "byteOffset": 514236,
      "componentType": 5126,
      "count": 42853,
      "max": [
        0.9999995231628418,
        1.0,
        1.0
      ],
      "min": [
        -0.9999999403953552,
        -1.0,
        -1.0
      ],
      "type": "VEC3"
    },
    {
      "bufferView": 1,
      "componentType": 5126,
      "count": 42853,
      "max": [
        1.9874930381774902,
        2.0031492710113525
      ],
      "min": [
        -1.04213547706604,
        -1.0783309936523438
      ],
      "type": "VEC2"
    },
    {
      "bufferView": 0,
      "componentType": 5125,
      "count": 168366,
      "type": "SCALAR"
    },
    {
      "bufferView": 2,
      "byteOffset": 1028472,
      "componentType": 5126,
      "count": 65532,
      "max": [
        87.43388366699219,
        47.4661865234375,
        71.14124298095703
      ],
      "min": [
        -87.4597396850586,
        6.7494401931762695,
        -67.3074722290039
      ],
      "type": "VEC3"
    },
    {
      "bufferView": 2,
      "byteOffset": 1814856,
      "componentType": 5126,
      "count": 65532,
      "max": [
        0.9999994039535522,
        0.9999988675117493,
        0.9999996423721313
      ],
      "min": [
        -0.9999986290931702,
        -0.9999998807907104,
        -0.9999991059303284
      ],
      "type": "VEC3"
    },
    {
      "bufferView": 3,
      "componentType": 5126,
      "count": 65532,
      "max": [
        1.0,
        0.9967209100723267,
        0.9999765753746033,
        1.0
      ],
      "min": [
        -0.9998033046722412,
        -0.9967246055603027,
        -1.0,
        -1.0
      ],
      "type": "VEC4"
    },
    {
      "bufferView": 1,
      "byteOffset": 342824,
      "componentType": 5126,
      "count": 65532,
      "max": [
        2.3308897018432617,
        2.3459060192108154
      ],
      "min": [
        -0.7248917818069458,
        -0.9427635669708252
      ],
      "type": "VEC2"
    },
    {
      "bufferView": 1,
      "byteOffset": 867080,
      "componentType": 5126,
      "count": 65532,
      "max": [
        2.3308897018432617,
        2.3459060192108154
      ],
      "min": [
        -0.7248917818069458,
        -0.9427635669708252
      ],
      "type": "VEC2"
    },
    {
      "bufferView": 1,
      "byteOffset": 1391336,
      "componentType": 5126,
      "count": 65532,
      "max": [
        2.3308897018432617,
        2.3459060192108154
      ],
      "min": [
        -0.7248917818069458,
        -0.9427635669708252
      ],
      "type": "VEC2"
    },
    {
      "bufferView": 0,
      "byteOffset": 673464,
      "componentType": 5125,
      "count": 267462,
      "type": "SCALAR"
    },
    {
      "bufferView": 2,
      "byteOffset": 2601240,
      "componentType": 5126,
      "count": 65532,
      "max": [
        32.845096588134766,
        52.36673355102539,
        77.19860076904297
      ],
      "min": [
        -25.715097427368164,
        6.288783073425293,
        -61.9659423828125
      ],
      "type": "VEC3"
    },
    {
      "bufferView": 2,
      "byteOffset": 3387624,
      "componentType": 5126,
      "count": 65532,
      "max": [
        0.9999990463256836,
        0.9999995231628418,
        0.9999929666519165
      ],
      "min": [
        -1.0,
        -0.9999893307685852,
        -0.9999996423721313
      ],
      "type": "VEC3"
    },
    {
      "bufferView": 3,
      "byteOffset": 1048512,
      "componentType": 5126,
      "count": 65532,
      "max": [
        1.0,
        0.9999379515647888,
        0.9999787211418152,
        1.0
      ],
      "min": [
        -0.9983987808227539,
        -0.9996131062507629,
        -1.0,
        -1.0
      ],
      "type": "VEC4"
    },
    {
      "bufferView": 1,
      "byteOffset": 1915592,
      "componentType": 5126,
      "count": 65532,
      "max": [
        5.305275917053223,
        10.429201126098633
      ],
      "min": [
        -4.329905033111572,
        -1.2316830158233643
      ],
      "type": "VEC2"
    },
    {
      "bufferView": 1,
      "byteOffset": 2439848,
      "componentType": 5126,
      "count": 65532,
      "max": [
        5.305275917053223,
        10.429201126098633
      ],
      "min": [
        -4.329905033111572,
        -1.2316830158233643
      ],
      "type": "VEC2"
    },
    {
      "bufferView": 1,
      "byteOffset": 2964104,
      "componentType": 5126,
      "count": 65532,
      "max": [
        5.305275917053223,
        10.429201126098633
      ],
      "min": [
        -4.329905033111572,
        -1.2316830158233643
      ],
      "type": "VEC2"
    },
    {
      "bufferView": 0,
      "byteOffset": 1743312,
      "componentType": 5125,
      "count": 305376,
      "type": "SCALAR"
    },
    {
      "bufferView": 2,
      "byteOffset": 4174008,
      "componentType": 5126,
      "count": 65532,
      "max": [
        32.807525634765625,
        52.36673355102539,
        48.822021484375
      ],
      "min": [
        -32.897029876708984,
        6.288783073425293,
        -66.41464233398438
      ],
      "type": "VEC3"
    },
    {
      "bufferView": 2,
      "byteOffset": 4960392,
      "componentType": 5126,
      "count": 65532,
      "max": [
        0.9999991059303284,
        0.9999954700469971,
        0.9999973177909851
      ],
      "min": [
        -0.9999877214431763,
        -0.9999892115592957,
        -0.9999933838844299
      ],
      "type": "VEC3"
    },
    {
      "bufferView": 3,
      "byteOffset": 2097024,
      "componentType": 5126,
      "count": 65532,
      "max": [
        1.0,
        0.9999699592590332,
        0.995343029499054,
        1.0
      ],
      "min": [
        -0.9998761415481567,
        -0.9993610978126526,
        -1.0,
        -1.0
      ],
      "type": "VEC4"
    },
    {
      "bufferView": 1,
      "byteOffset": 3488360,
      "componentType": 5126,
      "count": 65532,
      "max": [
        5.226607322692871,
        10.17221736907959
      ],
      "min": [
        -5.050423622131348,
        -0.3066544532775879
      ],
      "type": "VEC2"
    },
    {
      "bufferView": 1,
      "byteOffset": 4012616,
      "componentType": 5126,
      "count": 65532,
      "max": [
        5.226607322692871,
        10.17221736907959
      ],
      "min": [
        -5.050423622131348,
        -0.3066544532775879
      ],
      "type": "VEC2"
    },
    {
      "bufferView": 1,
      "byteOffset": 4536872,
      "componentType": 5126,
      "count": 65532,
      "max": [
        5.226607322692871,
        10.17221736907959
      ],
      "min": [
        -5.050423622131348,
        -0.3066544532775879
      ],
      "type": "VEC2"
    },
    {
      "bufferView": 0,
      "byteOffset": 2964816,
      "componentType": 5125,
      "count": 282048,
      "type": "SCALAR"
    },
    {
      "bufferView": 2,
      "byteOffset": 5746776,
      "componentType": 5126,
      "count": 40644,
      "max": [
        39.82958984375,
        47.910919189453125,
        77.14061737060547
      ],
      "min": [
        -39.90055465698242,
        6.7494401931762695,
        -70.57533264160156
      ],
      "type": "VEC3"
    },
    {
      "bufferView": 2,
      "byteOffset": 6234504,
      "componentType": 5126,
      "count": 40644,
      "max": [
        0.999998927116394,
        0.9999995231628418,
        0.9999997615814209
      ],
      "min": [
        -0.9999985694885254,
        -1.0,
        -0.9999990463256836
      ],
      "type": "VEC3"
    },
    {
      "bufferView": 3,
      "byteOffset": 3145536,
      "componentType": 5126,
      "count": 40644,
      "max": [
        1.0,
        0.9993458986282349,
        0.999998152256012,
        1.0
      ],
      "min": [
        -0.9991145730018616,
        -0.9998437166213989,
        -1.0,
        -1.0
      ],
      "type": "VEC4"
    },
    {
      "bufferView": 1,
      "byteOffset": 5061128,
      "componentType": 5126,
      "count": 40644,
      "max": [
        2.3256449699401855,
        2.3452906608581543
      ],
      "min": [
        -1.2195287942886353,
        -1.2316830158233643
      ],
      "type": "VEC2"
    },
    {
      "bufferView": 1,
      "byteOffset": 5386280,
      "componentType": 5126,
      "count": 40644,
      "max": [
        2.3256449699401855,
        2.3452906608581543
      ],
      "min": [
        -1.2195287942886353,
        -1.2316830158233643
      ],
      "type": "VEC2"
    },
    {
      "bufferView": 1,
      "byteOffset": 5711432,
      "componentType": 5126,
      "count": 40644,
      "max": [
        2.3256449699401855,
        2.3452906608581543
      ],
      "min": [
        -1.2195287942886353,
        -1.2316830158233643
      ],
      "type": "VEC2"
    },
    {
      "bufferView": 0,
      "byteOffset": 4093008,
      "componentType": 5125,
      "count": 172248,
      "type": "SCALAR"
    },
    {
      "bufferView": 2,
      "byteOffset": 6722232,
      "componentType": 5126,
      "count": 24868,
      "max": [
        36.733245849609375,
        23.110830307006836,
        10.829209327697754
      ],
      "min": [
        -36.73164749145508,
        -7.559750088148576e-07,
        -37.674713134765625
      ],
      "type": "VEC3"
    },
    {
      "bufferView": 2,
      "byteOffset": 7020648,
      "componentType": 5126,
      "count": 24868,
      "max": [
        0.9999977350234985,
        0.9999966025352478,
        0.9999959468841553
      ],
      "min": [
        -0.9999939799308777,
        -0.9999814033508301,
        -1.0
      ],
      "type": "VEC3"
    },
    {
      "bufferView": 3,
      "byteOffset": 3795840,
      "componentType": 5126,
      "count": 24868,
      "max": [
        1.0,
        0.8698017597198486,
        0.866628885269165,
        1.0
      ],
      "min": [
        -0.8304049968719482,
        -0.858977735042572,
        -1.0,
        -1.0
      ],
      "type": "VEC4"
    },
    {
      "bufferView": 1,
      "byteOffset": 6036584,
      "componentType": 5126,
      "count": 24868,
      "max": [
        1.8914532661437988,
        1.8848655223846436
      ],
      "min": [
        -0.9047122001647949,
        -0.8998334407806396
      ],
      "type": "VEC2"
    },
    {
      "bufferView": 1,
      "byteOffset": 6235528,
      "componentType": 5126,
      "count": 24868,
      "max": [
        1.8914532661437988,
        1.8848655223846436
      ],
      "min": [
        -0.9047122001647949,
        -0.8998334407806396
      ],
      "type": "VEC2"
    },
    {
      "bufferView": 1,
      "byteOffset": 6434472,
      "componentType": 5126,
      "count": 24868,
      "max": [
        1.8914532661437988,
        1.8848655223846436
      ],
      "min": [
        -0.9047122001647949,
        -0.8998334407806396
      ],
      "type": "VEC2"
    },
    {
      "bufferView": 0,
      "byteOffset": 4782000,
      "componentType": 5125,
      "count": 81831,
      "type": "SCALAR"
    },
    {
      "bufferView": 2,
      "byteOffset": 7319064,
      "componentType": 5126,
      "count": 51163,
      "max": [
        38.187374114990234,
        55.109493255615234,
        3.4233086109161377
      ],
      "min": [
        -38.23988342285156,
        9.138470649719238,
        -72.92861938476563
      ],
      "type": "VEC3"
    },
    {
      "bufferView": 2,
      "byteOffset": 7933020,
      "componentType": 5126,
      "count": 51163,
      "max": [
        0.9999892115592957,
        0.9999975562095642,
        0.9999978542327881
      ],
      "min": [
        -0.999995231628418,
        -0.9999662041664124,
        -0.9999991655349731
      ],
      "type": "VEC3"
    },
    {
      "bufferView": 3,
      "byteOffset": 4193728,
      "componentType": 5126,
      "count": 51163,
      "max": [
        1.0,
        0.8908295631408691,
        0.8877134919166565,
        1.0
      ],
      "min": [
        -0.8531972765922546,
        -0.8896082043647766,
        -1.0,
        -1.0
      ],
      "type": "VEC4"
    },
    {
      "bufferView": 1,
      "byteOffset": 6633416,
      "componentType": 5126,
      "count": 51163,
      "max": [
        1.7102144956588745,
        1.0421271324157715
      ],
      "min": [
        -0.7098993062973022,
        -0.09364134073257446
      ],
      "type": "VEC2"
    },
    {
      "bufferView": 1,
      "byteOffset": 7042720,
      "componentType": 5126,
      "count": 51163,
      "max": [
        1.7102144956588745,
        1.0421271324157715
      ],
      "min": [
        -0.7098993062973022,
        -0.09364134073257446
      ],
      "type": "VEC2"
    },
    {
      "bufferView": 1,
      "byteOffset": 7452024,
      "componentType": 5126,
      "count": 51163,
      "max": [
        1.7102144956588745,
        1.0421271324157715
      ],
      "min": [
        -0.7098993062973022,
        -0.09364134073257446
      ],
      "type": "VEC2"
    },
    {
      "bufferView": 0,
      "byteOffset": 5109324,
      "componentType": 5125,
      "count": 156270,
      "type": "SCALAR"
    },
    {
      "bufferView": 2,
      "byteOffset": 8546976,
      "componentType": 5126,
      "count": 663,
      "max": [
        9.398856163024902,
        47.45283126831055,
        33.43162155151367
      ],
      "min": [
        -10.078248023986816,
        40.434932708740234,
        4.038618087768555
      ],
      "type": "VEC3"
    },
    {
      "bufferView": 2,
      "byteOffset": 8554932,
      "componentType": 5126,
      "count": 663,
      "max": [
        0.9999209642410278,
        0.9886720776557922,
        0.8813621401786804
      ],
      "min": [
        -0.999989926815033,
        -0.9675511121749878,
        -0.49380841851234436
      ],
      "type": "VEC3"
    },
    {
      "bufferView": 1,
      "byteOffset": 7861328,
      "componentType": 5126,
      "count": 663,
      "max": [
        1.3457061052322388,
        6.58200740814209
      ],
      "min": [
        -1.665122389793396,
        0.06590396165847778
      ],
      "type": "VEC2"
    },
    {
      "bufferView": 0,
      "byteOffset": 5734404,
      "componentType": 5125,
      "count": 2073,
      "type": "SCALAR"
    },
    {
      "bufferView": 2,
      "byteOffset": 8562888,
      "componentType": 5126,
      "count": 854,
      "max": [
        35.06193161010742,
        44.64141845703125,
        7.7332963943481445
      ],
      "min": [
        -35.061431884765625,
        12.64802360534668,
        -46.470375061035156
      ],
      "type": "VEC3"
    },
    {
      "bufferView": 2,
      "byteOffset": 8573136,
      "componentType": 5126,
      "count": 854,
      "max": [
        0.7954946160316467,
        0.9070462584495544,
        0.9999293684959412
      ],
      "min": [
        -0.9137464165687561,
        -0.7298130393028259,
        0.10751569271087646
      ],
      "type": "VEC3"
    },
    {
      "bufferView": 1,
      "byteOffset": 7866632,
      "componentType": 5126,
      "count": 854,
      "max": [
        0.9552818536758423,
        0.5655709505081177
      ],
      "min": [
        0.04416796565055847,
        0.2837839126586914
      ],
      "type": "VEC2"
    },
    {
      "bufferView": 0,
      "byteOffset": 5742696,
      "componentType": 5125,
      "count": 2778,
      "type": "SCALAR"
    },
    {
      "bufferView": 2,
      "byteOffset": 8583384,
      "componentType": 5126,
      "count": 622,
      "max": [
        31.839359283447266,
        42.89265060424805,
        -66.94548034667969
      ],
      "min": [
        -31.839216232299805,
        31.3930606842041,
        -72.20821380615234
      ],
      "type": "VEC3"
    },
    {
      "bufferView": 2,
      "byteOffset": 8590848,
      "componentType": 5126,
      "count": 622,
      "max": [
        0.7432129383087158,
        0.8010932803153992,
        -0.36381101608276367
      ],
      "min": [
        -0.7077785134315491,
        -0.8927472829818726,
        -0.999999463558197
      ],
      "type": "VEC3"
    },
    {
      "bufferView": 1,
      "byteOffset": 7873464,
      "componentType": 5126,
      "count": 622,
      "max": [
        0.9291685819625854,
        0.6607415676116943
      ],
      "min": [
        0.07114648818969727,
        0.3870590031147003
      ],
      "type": "VEC2"
    },
    {
      "bufferView": 0,
      "byteOffset": 5753808,
      "componentType": 5125,
      "count": 2097,
      "type": "SCALAR"
    },
    {
      "bufferView": 2,
      "byteOffset": 8598312,
      "componentType": 5126,
      "count": 186,
      "max": [
        22.871646881103516,
        37.1528434753418,
        7.606886386871338
      ],
      "min": [
        -22.775075912475586,
        32.17121124267578,
        6.221006870269775
      ],
      "type": "VEC3"
    },
    {
      "bufferView": 2,
      "byteOffset": 8600544,
      "componentType": 5126,
      "count": 186,
      "max": [
        0.9669082760810852,
        0.4745180606842041,
        0.9999597668647766
      ],
      "min": [
        -0.7597882151603699,
        -0.25243696570396423,
        0.24926961958408356
      ],
      "type": "VEC3"
    },
    {
      "bufferView": 3,
      "byteOffset": 5012336,
      "componentType": 5126,
      "count": 186,
      "max": [
        0.9999961256980896,
        0.011828597635030746,
        0.6699778437614441,
        1.0
      ],
      "min": [
        -0.6442931890487671,
        -0.012699007987976074,
        -0.9683384895324707,
        -1.0
      ],
      "type": "VEC4"
    },
    {
      "bufferView": 1,
      "byteOffset": 7878440,
      "componentType": 5126,
      "count": 186,
      "max": [
        6.230218410491943,
        1.3294358253479004
      ],
      "min": [
        -5.067844867706299,
        0.09642761945724487
      ],
      "type": "VEC2"
    },
    {
      "bufferView": 1,
      "byteOffset": 7879928,
      "componentType": 5126,
      "count": 186,
      "max": [
        6.230218410491943,
        1.3294358253479004
      ],
      "min": [
        -5.067844867706299,
        0.09642761945724487
      ],
      "type": "VEC2"
    },
    {
      "bufferView": 1,
      "byteOffset": 7881416,
      "componentType": 5126,
      "count": 186,
      "max": [
        6.230218410491943,
        1.3294358253479004
      ],
      "min": [
        -5.067844867706299,
        0.09642761945724487
      ],
      "type": "VEC2"
    },
    {
      "bufferView": 0,
      "byteOffset": 5762196,
      "componentType": 5125,
      "count": 594,
      "type": "SCALAR"
    }
  ],
  "asset": {
    "extras": {
      "author": "Jungle Jim (https://sketchfab.com/jungle_jim)",
      "license": "CC-BY-4.0 (http://creativecommons.org/licenses/by/4.0/)",
      "source": "https://sketchfab.com/3d-models/spaceship-clst-500-eea823df8fd149a1a657f09da0fb71b8",
      "title": "Spaceship CLST 500"
    },
    "generator": "Sketchfab-16.75.0",
    "version": "2.0"
  },
  "bufferViews": [
    {
      "buffer": 0,
      "byteLength": 5764572,
      "name": "floatBufferViews",
      "target": 34963
    },
    {
      "buffer": 0,
      "byteLength": 7882904,
      "byteOffset": 5764572,
      "byteStride": 8,
      "name": "floatBufferViews",
      "target": 34962
    },
    {
      "buffer": 0,
      "byteLength": 8602776,
      "byteOffset": 13647476,
      "byteStride": 12,
      "name": "floatBufferViews",
      "target": 34962
    },
    {
      "buffer": 0,
      "byteLength": 5015312,
      "byteOffset": 22250252,
      "byteStride": 16,
      "name": "floatBufferViews",
      "target": 34962
    }
  ],
  "buffers": [
    {
      "byteLength": 27265564,
      "uri": "scene.bin"
    }
  ],
  "extensionsUsed": [
    "KHR_materials_emissive_strength"
  ],
  "images": [
    {
      "uri": "textures/Panels_white1_baseColor.png"
    },
    {
      "uri": "textures/Panels_white1_normal.png"
    },
    {
      "uri": "textures/Panels_white2_baseColor.png"
    },
    {
      "uri": "textures/Panels_white2_normal.png"
    },
    {
      "uri": "textures/Panels_white3_baseColor.png"
    },
    {
      "uri": "textures/Panels_white3_normal.png"
    },
    {
      "uri": "textures/Grated_fence_baseColor.jpeg"
    },
    {
      "uri": "textures/Grated_fence_normal.png"
    }
  ],
  "materials": [
    {
      "doubleSided": true,
      "name": "Orange",
      "pbrMetallicRoughness": {
        "baseColorFactor": [
          0.800228,
          0.151603,
          0.0,
          1.0
        ],
        "metallicFactor": 0.2780582011228473,
        "roughnessFactor": 0.31471262928322263
      }
    },
    {
      "doubleSided": true,
      "name": "Panels_white1",
      "normalTexture": {
        "index": 1,
        "texCoord": 1
      },
      "pbrMetallicRoughness": {
        "baseColorTexture": {
          "index": 0
        },
        "metallicFactor": 0.15587677392159618,
        "roughnessFactor": 0.7240204104074139
      }
    },
    {
      "doubleSided": true,
      "name": "Panels_white2",
      "normalTexture": {
        "index": 3
      },
      "pbrMetallicRoughness": {
        "baseColorTexture": {
          "index": 2
        },
        "metallicFactor": 0.0
      }
    },
    {
      "doubleSided": true,
      "name": "Panels_white3",
      "normalTexture": {
        "index": 5
      },
      "pbrMetallicRoughness": {
        "baseColorTexture": {
          "index": 4
        },
        "metallicFactor": 0.0
      }
    },
    {
      "alphaMode": "BLEND",
      "doubleSided": true,
      "name": "Glass.001",
      "pbrMetallicRoughness": {
        "baseColorFactor": [
          0.0,
          0.0,
          0.0,
          0.9683832648099162
        ],
        "metallicFactor": 0.83398369488854
      }
    },
    {
      "doubleSided": true,
      "emissiveFactor": [
        1.0,
        1.0,
        1.0
      ],
      "extensions": {
        "KHR_materials_emissive_strength": {
          "emissiveStrength": 3.0
        }
      },
      "name": "Emissive_white",
      "pbrMetallicRoughness": {
        "baseColorFactor": [
          0.8,
          0.8,
          0.8,
          1.0
        ],
        "metallicFactor": 0.0
      }
    },
    {
      "doubleSided": true,
      "emissiveFactor": [
        1.0,
        0.0,
        0.0
      ],
      "extensions": {
        "KHR_materials_emissive_strength": {
          "emissiveStrength": 10.0
        }
      },
      "name": "Emissive_red",
      "pbrMetallicRoughness": {
        "baseColorFactor": [
          0.8,
          0.8,
          0.8,
          1.0
        ],
        "metallicFactor": 0.0
      }
    },
    {
      "doubleSided": true,
      "name": "Grated_fence",
      "normalTexture": {
        "index": 7
      },
      "pbrMetallicRoughness": {
        "baseColorTexture": {
          "index": 6
        },
        "metallicFactor": 0.0
      }
    }
  ],
  "meshes": [
    {
      "name": "Spaceship coolest Orange 500k_Orange_0",
      "primitives": [
        {
          "attributes": {
            "NORMAL": 1,
            "POSITION": 0,
            "TEXCOORD_0": 2
          },
          "indices": 3,
          "material": 0,
          "mode": 4
        }
      ]
    },
    {
      "name": "Spaceship coolest Orange 500k_Panels white1_0",
      "primitives": [
        {
          "attributes": {
            "NORMAL": 5,
            "POSITION": 4,
            "TANGENT": 6,
            "TEXCOORD_0": 7,
            "TEXCOORD_1": 8,
            "TEXCOORD_2": 9
          },
          "indices": 10,
          "material": 1,
          "mode": 4
        }
      ]
    },
    {
      "name": "Spaceship coolest Orange 500k_Panels white1_0",
      "primitives": [
        {
          "attributes": {
            "NORMAL": 12,
            "POSITION": 11,
            "TANGENT": 13,
            "TEXCOORD_0": 14,
            "TEXCOORD_1": 15,
            "TEXCOORD_2": 16
          },
          "indices": 17,
          "material": 1,
          "mode": 4
        }
      ]
    },
    {
      "name": "Spaceship coolest Orange 500k_Panels white1_0",
      "primitives": [
        {
          "attributes": {
            "NORMAL": 19,
            "POSITION": 18,
            "TANGENT": 20,
            "TEXCOORD_0": 21,
            "TEXCOORD_1": 22,
            "TEXCOORD_2": 23
          },
          "indices": 24,
          "material": 1,
          "mode": 4
        }
      ]
    },
    {
      "name": "Spaceship coolest Orange 500k_Panels white1_0",
      "primitives": [
        {
          "attributes": {
            "NORMAL": 26,
            "POSITION": 25,
            "TANGENT": 27,
            "TEXCOORD_0": 28,
            "TEXCOORD_1": 29,
            "TEXCOORD_2": 30
          },
          "indices": 31,
          "material": 1,
          "mode": 4
        }
      ]
    },
    {
      "name": "Spaceship coolest Orange 500k_Panels white2_0",
      "primitives": [
        {
          "attributes": {
            "NORMAL": 33,
            "POSITION": 32,
            "TANGENT": 34,
            "TEXCOORD_0": 35,
            "TEXCOORD_1": 36,
            "TEXCOORD_2": 37
          },
          "indices": 38,
          "material": 2,
          "mode": 4
        }
      ]
    },
    {
      "name": "Spaceship coolest Orange 500k_Panels white3_0",
      "primitives": [
        {
          "attributes": {
            "NORMAL": 40,
            "POSITION": 39,
            "TANGENT": 41,
            "TEXCOORD_0": 42,
            "TEXCOORD_1": 43,
            "TEXCOORD_2": 44
          },
          "indices": 45,
          "material": 3,
          "mode": 4
        }
      ]
    },
    {
      "name": "Spaceship coolest Orange 500k_Glass.001_0",
      "primitives": [
        {
          "attributes": {
            "NORMAL": 47,
            "POSITION": 46,
            "TEXCOORD_0": 48
          },
          "indices": 49,
          "material": 4,
          "mode": 4
        }
      ]
    },
    {
      "name": "Spaceship coolest Orange 500k_Emissive white_0",
      "primitives": [
        {
          "attributes": {
            "NORMAL": 51,
            "POSITION": 50,
            "TEXCOORD_0": 52
          },
          "indices": 53,
          "material": 5,
          "mode": 4
        }
      ]
    },
    {
      "name": "Spaceship coolest Orange 500k_Emissive red_0",
      "primitives": [
        {
          "attributes": {
            "NORMAL": 55,
            "POSITION": 54,
            "TEXCOORD_0": 56
          },
          "indices": 57,
          "material": 6,
          "mode": 4
        }
      ]
    },
    {
      "name": "Spaceship coolest Orange 500k_Grated fence_0",
      "primitives": [
        {
          "attributes": {
            "NORMAL": 59,
            "POSITION": 58,
            "TANGENT": 60,
            "TEXCOORD_0": 61,
            "TEXCOORD_1": 62,
            "TEXCOORD_2": 63
          },
          "indices": 64,
          "material": 7,
          "mode": 4
        }
      ]
    }
  ],
  "nodes": [
    {
      "children": [
        1
      ],
      "matrix": [
        1.0,
        0.0,
        0.0,
        0.0,
        0.0,
        2.220446049250313e-16,
        -1.0,
        0.0,
        0.0,
        1.0,
        2.220446049250313e-16,
        0.0,
        0.0,
        0.0,
        0.0,
        1.0
      ],
      "name": "Sketchfab_model"
    },
    {
      "children": [
        2
      ],
      "matrix": [
        0.009999999776482582,
        0.0,
        0.0,
        0.0,
        0.0,
        0.0,
        0.009999999776482582,
        0.0,
        0.0,
        -0.009999999776482582,
        0.0,
        0.0,
        0.0,
        0.0,
        0.0,
        1.0
      ],
      "name": "1add390b96a84d38815d7c432c8a2186.fbx"
    },
    {
      "children": [
        3
      ],
      "name": "RootNode"
    },
    {
      "children": [
        4,
        5,
        6,
        7,
        8,
        9,
        10,
        11,
        12,
        13,
        14
      ],
      "matrix": [
        1.0,
        0.0,
        0.0,
        0.0,
        0.0,
        0.9999999999999971,
        -7.549789415861594e-08,
        0.0,
        0.0,
        7.549789415861594e-08,
        0.9999999999999971,
        0.0,
        0.0,
        0.0,
        0.0,
        1.0
      ],
      "name": "Spaceship coolest Orange 500k"
    },
    {
      "mesh": 0,
      "name": "Spaceship coolest Orange 500k_Orange_0"
    },
    {
      "mesh": 1,
      "name": "Spaceship coolest Orange 500k_Panels white1_0"
    },
    {
      "mesh": 2,
      "name": "Spaceship coolest Orange 500k_Panels white1_0"
    },
    {
      "mesh": 3,
      "name": "Spaceship coolest Orange 500k_Panels white1_0"
    },
    {
      "mesh": 4,
      "name": "Spaceship coolest Orange 500k_Panels white1_0"
    },
    {
      "mesh": 5,
      "name": "Spaceship coolest Orange 500k_Panels white2_0"
    },
    {
      "mesh": 6,
      "name": "Spaceship coolest Orange 500k_Panels white3_0"
    },
    {
      "mesh": 7,
      "name": "Spaceship coolest Orange 500k_Glass.001_0"
    },
    {
      "mesh": 8,
      "name": "Spaceship coolest Orange 500k_Emissive white_0"
    },
    {
      "mesh": 9,
      "name": "Spaceship coolest Orange 500k_Emissive red_0"
    },
    {
      "mesh": 10,
      "name": "Spaceship coolest Orange 500k_Grated fence_0"
    }
  ],
  "samplers": [
    {
      "magFilter": 9729,
      "minFilter": 9987,
      "wrapS": 10497,
      "wrapT": 10497
    }
  ],
  "scene": 0,
  "scenes": [
    {
      "name": "Sketchfab_Scene",
      "nodes": [
        0
      ]
    }
  ],
  "textures": [
    {
      "sampler": 0,
      "source": 0
    },
    {
      "sampler": 0,
      "source": 1
    },
    {
      "sampler": 0,
      "source": 2
    },
    {
      "sampler": 0,
      "source": 3
    },
    {
      "sampler": 0,
      "source": 4
    },
    {
      "sampler": 0,
      "source": 5
    },
    {
      "sampler": 0,
      "source": 6
    },
    {
      "sampler": 0,
      "source": 7
    }
  ]
}
